<?xml version="1.0"?>
<svg xmlns="http://www.w3.org/2000/svg" id="Layer_1" data-name="Layer 1" viewBox="0 0 64 64"><title>Icons8 RSL Colored Part 10</title><path d="M21.39,5H50.15a3,3,0,0,1,3,3V56a3,3,0,0,1-3,3h-38a3,3,0,0,1-3-3V17.24A3,3,0,0,1,10,15.12l9.24-9.24A3,3,0,0,1,21.39,5Z" style="fill:#faefde;"/><polygon points="9.15 59.06 9 49.6 52.48 6.12 53.15 29.06 23.15 59.06 9.15 59.06" style="fill:#fff7f0;"/><polygon points="9 39.21 43.21 5 48.96 5.25 9.15 45.06 9 39.21" style="fill:#fff7f0;"/><polygon points="9 33.21 37.15 5.06 40.15 5.06 9 36.21 9 33.21" style="fill:#fff7f0;"/><polygon points="41.65 17.06 42.89 19.32 45.15 20.56 42.89 21.8 41.65 24.06 40.41 21.8 38.15 20.56 40.41 19.32 41.65 17.06" style="fill:#fff;"/><polygon points="27.57 12.06 28.42 13.63 29.98 14.48 28.42 15.34 27.57 16.9 26.71 15.34 25.15 14.48 26.71 13.63 27.57 12.06" style="fill:#fff;"/><polygon points="17.8 32.06 18.38 33.13 19.44 33.71 18.38 34.29 17.8 35.36 17.21 34.29 16.15 33.71 17.21 33.13 17.8 32.06" style="fill:#fff;"/><polygon points="21.15 5.06 21.15 17.06 9.15 17.06 21.15 5.06" style="fill:#bbdef9;"/><path d="M25,23V38.08A6.24,6.24,0,0,0,24,38c-2.76,0-5,1.79-5,4s2.24,4,5,4,5-1.79,5-4V29.11l10-2.22v7.19A6.24,6.24,0,0,0,38,34c-2.76,0-5,1.79-5,4s2.24,4,5,4,5-1.79,5-4V19Z" style="fill:#f6d397;"/><path d="M51,4H21.66a5,5,0,0,0-3.54,1.46L9.46,14.12A5,5,0,0,0,8,17.66V57a3,3,0,0,0,3,3H51a3,3,0,0,0,3-3V7A3,3,0,0,0,51,4ZM19.54,6.88A3,3,0,0,1,20,6.5V15a1,1,0,0,1-1,1H10.5a3,3,0,0,1,.38-.46ZM52,57a1,1,0,0,1-1,1H11a1,1,0,0,1-1-1V18h9a3,3,0,0,0,3-3V6H51a1,1,0,0,1,1,1Z" style="fill:#8d6c9f;"/><path d="M13,52a1,1,0,0,0-1,1v2a1,1,0,0,0,2,0V53A1,1,0,0,0,13,52Z" style="fill:#8d6c9f;"/><path d="M18,52a1,1,0,0,0-1,1v2a1,1,0,0,0,2,0V53A1,1,0,0,0,18,52Z" style="fill:#8d6c9f;"/><path d="M23,52a1,1,0,0,0-1,1v2a1,1,0,0,0,2,0V53A1,1,0,0,0,23,52Z" style="fill:#8d6c9f;"/><path d="M28,52a1,1,0,0,0-1,1v2a1,1,0,0,0,2,0V53A1,1,0,0,0,28,52Z" style="fill:#8d6c9f;"/><path d="M33,52a1,1,0,0,0-1,1v2a1,1,0,0,0,2,0V53A1,1,0,0,0,33,52Z" style="fill:#8d6c9f;"/><path d="M38,52a1,1,0,0,0-1,1v2a1,1,0,0,0,2,0V53A1,1,0,0,0,38,52Z" style="fill:#8d6c9f;"/><path d="M43,52a1,1,0,0,0-1,1v2a1,1,0,0,0,2,0V53A1,1,0,0,0,43,52Z" style="fill:#8d6c9f;"/><path d="M48,52a1,1,0,0,0-1,1v2a1,1,0,0,0,2,0V53A1,1,0,0,0,48,52Z" style="fill:#8d6c9f;"/><path d="M42.78,18l-18,4A1,1,0,0,0,24,23V37c-3.31,0-6,2.24-6,5s2.69,5,6,5,6-2.24,6-5V29.91l8-1.78V33c-3.31,0-6,2.24-6,5s2.69,5,6,5,6-2.24,6-5V19a1,1,0,0,0-1.22-1ZM42,38c0,1.65-1.79,3-4,3s-4-1.35-4-3,1.79-3,4-3a5.13,5.13,0,0,1,.84.07,1,1,0,0,0,1.16-1V26.89a1,1,0,0,0-1.22-1l-10,2.22a1,1,0,0,0-.78,1V42c0,1.65-1.79,3-4,3s-4-1.35-4-3,1.79-3,4-3a5.13,5.13,0,0,1,.84.07,1,1,0,0,0,1.16-1V23.8l16-3.55Z" style="fill:#8d6c9f;"/></svg>
